<?xml version="1.0" encoding="UTF-8"?>
<svg id="logo_p4_Bild" data-name="logo p4 Bild" xmlns="http://www.w3.org/2000/svg" viewBox="0 0 75.62 75.62">
  <defs>
    <style>
      .cls-1 {
        fill: none;
        stroke: #000;
        stroke-miterlimit: 10;
        stroke-width: .03px;
      }
    </style>
  </defs>
  <g id="ok">
    <path class="cls-1" d="m.01,75.61V.01h75.59v75.59H.01Zm33.68-41.85c-.78.71-4.43,1.29-4.86.79.09-.09.18-.17.3-.28-.72-.11-1.29.32-1.43,1.02-.08.4.26.7.95.83.03,0,.06,0,.09.01,1.43.22,2.83.12,4.18-.39.48-.18.94-.53,1.27-.91.58-.68.43-1.48-.29-2.01-.26-.2-.55-.38-.86-.49-.73-.27-1.49-.5-2.23-.76-.17-.06-.42-.2-.44-.33-.02-.15.14-.39.28-.49,1.17-.76,2.49-.81,3.93-.85-.37.38-.88.45-.98.98.65-.3,1.24-.55,1.82-.83.33-.16.55-.7.47-1.06-.08-.37-.39-.42-.69-.47-1.51-.21-2.97-.06-4.38.56-.97.42-1.35,1.21-1.46,2.2-.04.42.11.73.5.86.69.25,1.39.49,2.1.67.65.17,1.27.34,1.72.95Z"/>
    <path class="cls-1" d="m33.7,33.76c-.45-.6-1.07-.77-1.72-.95-.71-.19-1.41-.43-2.1-.67-.39-.14-.54-.45-.5-.86.1-.99.49-1.77,1.46-2.2,1.41-.62,2.87-.77,4.38-.56.3.04.61.1.69.47.08.36-.14.9-.47,1.06-.58.28-1.17.54-1.82.83.11-.53.61-.6.98-.98-1.44.04-2.76.09-3.93.85-.15.1-.31.34-.28.49.02.13.27.26.44.33.74.27,1.49.49,2.23.76.3.11.59.3.86.49.71.53.86,1.34.29,2.01-.33.39-.8.73-1.27.91-1.34.51-2.75.61-4.18.39-.03,0-.06,0-.09-.01-.69-.13-1.03-.43-.95-.83.14-.71.71-1.13,1.43-1.02-.12.11-.21.19-.3.28.43.5,4.08-.08,4.86-.79Z"/>
  </g>
</svg>